<?xml version="1.0" encoding="utf-8"?>
<svg height="48" width="48" xmlns="http://www.w3.org/2000/svg">
  <path d="M 22.577 36.187 L 22.577 34.383 C 22.577 33.934 22.693 33.528 22.923 33.162 C 23.154 32.8 23.473 32.527 23.882 32.347 C 24.816 31.939 25.657 31.644 26.406 31.465 C 27.155 31.285 27.927 31.197 28.719 31.197 C 29.513 31.197 30.281 31.285 31.023 31.465 C 31.765 31.644 32.603 31.939 33.537 32.347 C 33.947 32.527 34.27 32.8 34.507 33.162 C 34.744 33.528 34.861 33.934 34.861 34.383 L 34.861 36.187 L 22.577 36.187 Z M 36.014 36.187 L 36.014 34.383 C 36.014 33.576 35.809 32.914 35.398 32.395 C 34.99 31.877 34.452 31.459 33.786 31.139 C 34.669 31.241 35.502 31.391 36.282 31.589 C 37.062 31.787 37.696 32.015 38.183 32.271 C 38.604 32.515 38.938 32.815 39.18 33.173 C 39.423 33.531 39.544 33.934 39.544 34.383 L 39.544 36.187 L 36.014 36.187 Z M 28.719 30.025 C 27.875 30.025 27.185 29.756 26.647 29.219 C 26.11 28.682 25.841 27.991 25.841 27.146 C 25.841 26.302 26.11 25.61 26.647 25.073 C 27.185 24.535 27.875 24.267 28.719 24.267 C 29.564 24.267 30.256 24.535 30.793 25.073 C 31.33 25.61 31.599 26.302 31.599 27.146 C 31.599 27.991 31.33 28.682 30.793 29.219 C 30.256 29.756 29.564 30.025 28.719 30.025 Z M 35.629 27.146 C 35.629 27.991 35.36 28.682 34.824 29.219 C 34.286 29.756 33.595 30.025 32.75 30.025 C 32.61 30.025 32.453 30.016 32.279 29.996 C 32.107 29.976 31.95 29.942 31.81 29.891 C 32.117 29.571 32.35 29.178 32.51 28.711 C 32.671 28.244 32.75 27.722 32.75 27.146 C 32.75 26.57 32.671 26.061 32.51 25.621 C 32.35 25.18 32.117 24.772 31.81 24.401 C 31.95 24.364 32.107 24.331 32.279 24.306 C 32.453 24.28 32.61 24.267 32.75 24.267 C 33.595 24.267 34.286 24.535 34.824 25.073 C 35.36 25.61 35.629 26.302 35.629 27.146 Z M 23.729 35.034 L 33.71 35.034 L 33.71 34.383 C 33.71 34.178 33.649 33.978 33.526 33.787 C 33.406 33.595 33.255 33.461 33.076 33.383 C 32.155 32.974 31.382 32.699 30.754 32.559 C 30.127 32.418 29.449 32.347 28.719 32.347 C 27.99 32.347 27.309 32.418 26.675 32.559 C 26.041 32.699 25.265 32.974 24.343 33.383 C 24.164 33.461 24.018 33.595 23.902 33.787 C 23.785 33.978 23.729 34.178 23.729 34.383 L 23.729 35.034 Z M 28.719 28.875 C 29.218 28.875 29.631 28.711 29.957 28.384 C 30.284 28.058 30.447 27.645 30.447 27.146 C 30.447 26.647 30.284 26.235 29.957 25.908 C 29.631 25.581 29.218 25.418 28.719 25.418 C 28.221 25.418 27.808 25.581 27.481 25.908 C 27.155 26.235 26.992 26.647 26.992 27.146 C 26.992 27.645 27.155 28.058 27.481 28.384 C 27.808 28.711 28.221 28.875 28.719 28.875 Z M 28.719 35.034 Z M 28.719 27.146 Z" style="fill: rgb(255, 255, 255);"/>
  <path d="M 21.751 2.833 C 19.251 2.833 16.901 3.308 14.701 4.258 C 12.501 5.208 10.576 6.5 8.926 8.133 C 7.276 9.766 5.976 11.683 5.026 13.883 C 4.076 16.083 3.601 18.433 3.601 20.933 C 3.601 23.433 4.076 25.766 5.026 27.933 C 5.976 30.1 7.276 31.991 8.926 33.608 C 10.576 35.225 12.501 36.5 14.701 37.433 C 16.901 38.366 19.251 38.833 21.751 38.833 M 21.751 38.833 C 21.748 35.892 21.755 38.864 21.751 35.833 M 21.751 35.833 C 17.585 35.833 14.018 34.408 11.051 31.558 C 8.085 28.708 6.601 25.216 6.601 21.083 C 6.601 16.85 8.068 13.25 11.001 10.283 C 13.935 7.316 17.518 5.833 21.751 5.833 C 25.918 5.833 29.435 7.3 32.301 10.233 C 35.168 13.166 36.601 16.716 36.601 20.883 L 39.601 20.883 C 39.601 15.883 37.868 11.625 34.401 8.108 C 30.935 4.591 26.718 2.833 21.751 2.833" style="fill: rgb(255, 255, 255);"/>
  <path d="M 20.901 10.683 L 13.201 18.283 L 13.201 28.983 L 16.201 28.983 L 16.201 19.533 L 23.051 12.833 L 20.901 10.683 Z" style="fill: rgb(255, 255, 255);" transform="matrix(-1, 0, 0, -1, 36.252001, 39.665998)"/>
</svg>